# xmcd CD database file
#
# Track frame offsets:
#	150
#	14818
#	27827
#	39095
#	46174
#	65919
#	86385
#	107311
#	124763
#	142133
#	156199
#	175766
#	187201
#	205989
#	227633
#	247769
#	264075
#	273086
#	291257
#	304901
#
# Disc length: 4333 seconds
#
# Revision: 1
# Processed by: cddbd v1.5.2PL0 Copyright (c) Steve Scherf et al.
# Submitted via: CDex 1.51
#
DISCID=1310eb14
DTITLE=Various Artist - Starfish Blues Notes Vol.1
DYEAR=1997
DGENRE=Blues
TTITLE0=Andy and the Blues Strakers - You ain't like you used to be
TTITLE1=No Mercy - Two ways to skin a cat
TTITLE2=The Crawl - Ma' Babe
TTITLE3=Blue Flames - Boogie Kowski
TTITLE4=Texas Boogie Connection - Dontcha know
TTITLE5=Checkin' Up - Come back Baby
TTITLE6=Franck Claret and les Cigales - L'heritage
TTITLE7=Alex MacGerrit - Keep the Ball rolling
TTITLE8=Final Affair - The Truth
TTITLE9=The Source - Dead and gone
TTITLE10=The Source - Worldwar
TTITLE11=Texas Boogie Connection - If I only could flag her down
TTITLE12=Checkin' Up - Akos
TTITLE13=Blue Flames - Star Fortress
TTITLE14=The Crawl - Right next Door
TTITLE15=No Mercy - Dirty Deeds
TTITLE16=Andy and the Blues Shakers - Blues Shaker Boogie
TTITLE17=Alex MacGerrit - (I was a) Loser
TTITLE18=Franck Claret and les Cigales - Tu es si fragile
TTITLE19=Final Affair - Good Girls
EXTD=YEAR: 1997
EXTT0=
EXTT1=
EXTT2=
EXTT3=
EXTT4=
EXTT5=
EXTT6=
EXTT7=
EXTT8=
EXTT9=
EXTT10=
EXTT11=
EXTT12=
EXTT13=
EXTT14=
EXTT15=
EXTT16=
EXTT17=
EXTT18=
EXTT19=
PLAYORDER=
